ElronJimbory Bold v011.sfdir
StartChar: parenleft
Encoding: 40 40 65
Width: 349
VWidth: 0
Flags: W
VStem: 73.4824 178.878<47.2172 758.843>
LayerCount: 2
Fore
SplineSet
252.360351562 420.5 m 2
 252.360351562 389.5 l 2
 254.831054688 254.166015625 251.825195312 13.486328125 309 -46.5 c 0
 353.244140625 -92.919921875 391 -74.64453125 391 -99.1650390625 c 2
 391 -196.5 l 2
 391 -218.329101562 212.297851562 -239.673828125 132 -74.5 c 0
 69.3330078125 54.4072265625 73.482421875 281.471679688 73.482421875 389.5 c 2
 73.482421875 420.5 l 2
 73.482421875 528.528320312 69.3330078125 750.592773438 132 879.5 c 0
 212.297851562 1044.67382812 391 1034.11914062 391 1006.83398438 c 2
 391 898.833984375 l 2
 391 879.65625 353.244140625 897.919921875 309 851.5 c 0
 251.825195312 791.513671875 254.831054688 555.833984375 252.360351562 420.5 c 2
EndSplineSet
EndChar
StartChar: hyphen
Encoding: 45 45 38
Width: 480
VWidth: 0
Flags: W
HStem: 280 169<48.1718 432.074>
LayerCount: 2
Fore
SplineSet
371 280 m 6
 114 280 l 2
 58.71875 280 42 275.260742188 42 339.5 c 2
 42 389 l 2
 42 454.350585938 71.5390625 451.477539062 119.416992188 451 c 10
 369 449 l 6
 416.991210938 448.521484375 437 450.630859375 437 389.5 c 2
 437 338.5 l 2
 437 276.9140625 417.4296875 280 371 280 c 6
EndSplineSet
EndChar
StartChar: zero
Encoding: 48 48 55
Width: 633
VWidth: 0
Flags: W
HStem: 0 168<237.273 406.971> 593 177<233.378 398.367>
VStem: 53.4268 167<184.564 273 481 583.585> 415.427 168<181.207 271 478 583.124>
LayerCount: 2
Fore
SplineSet
220.095703125 481 m 6
 219.881835938 602.299804688 223.284179688 593 321.125976562 593 c 0
 405.180664062 593 415.426757812 593.077148438 415.426757812 478 c 6
 415.426757812 271 l 2
 415.426757812 155.673828125 400.1171875 168 315.125976562 168 c 0
 241.301757812 168 220.612304688 167.783203125 220.426757812 273 c 2
 220.095703125 481 l 6
53.4267578125 531 m 2
 53.4267578125 226 l 2
 53.4267578125 37.6630859375 119.22265625 0 299.657226562 0 c 2
 350.426757812 0 l 2
 512.75 0 583.426757812 36.93359375 583.426757812 232 c 2
 583.426757812 518 l 2
 583.426757812 707.112304688 543.650390625 770 336.125976562 770 c 2
 286.125976562 770 l 2
 82.6708984375 770 53.4267578125 733.078125 53.4267578125 531 c 2
EndSplineSet
EndChar
StartChar: two
Encoding: 50 50 40
Width: 571
VWidth: 0
Flags: W
HStem: 0 169<312.24 516.216> 607.987 161.035<65.1702 328.412>
VStem: 358.464 166.536<414.55 580.71>
LayerCount: 2
Fore
SplineSet
358.463867188 487.001953125 m 3
 358.463867188 588.354221344 322.193359375 609.001953125 278.463867188 609.001953125 c 3
 232.590820312 609.001953125 128.901367971 607.98730559 107 607.987304688 c 0
 66.4870097811 607.987303019 63.4471231979 621.048538874 63.5 646.858398438 c 2
 63.6640625 726.939453125 l 2
 63.7293914227 754.845402428 66.5052704811 769.022460938 102.0546875 769.022460938 c 3
 209.268554688 769.022460938 160.875 769.001953125 254 769.001953125 c 3
 472.619117871 769.001953125 525 651.744140625 525 483 c 3
 525 370.298992304 465.82301365 294.481457264 396 241 c 2
 325.5 187 l 2
 276 155 l 1
 348.479492188 169 l 1
 460.624023438 169 l 2
 517.353515625 169 525.958984375 152.225585938 525.958007812 109.833007812 c 6
 525.958007812 62.5 l 2
 525.958007812 16.6107596182 506.155273438 0 460.958007812 0 c 2
 113.458007812 0 l 2
 69.2984264009 0 53.9580078125 13.4030404611 53.9580078125 47.5 c 2
 53.9580078125 114 l 2
 53.9580078125 149.75771061 61.8848807912 161.136848153 92.626953125 191.250976562 c 2
 122.485878632 220.499997485 l 2
 251 329 l 2
 293.125505365 364.565098912 358.463867188 409.341610284 358.463867188 487.001953125 c 3
EndSplineSet
EndChar
StartChar: three
Encoding: 51 51 42
Width: 580
VWidth: 0
Flags: W
HStem: 0 169<50.8755 300.552> 328 163<152.177 352.229> 600 169<66.752 356.709>
VStem: 352.229 177.771<212.293 291.991 491.146 598.755>
LayerCount: 2
Fore
SplineSet
107.25 169 m 2
 217.5 169 l 2
 309.5 169 353.239257812 214.000976562 353 279 c 2
 354.036132812 279.840820312 352.952148438 292 352.952148438 292 c 1
 352.952148438 292 361.723632812 330 361.723632812 330 c 2
 321.166992188 328 l 1
 204.25 328 l 2
 155.874938965 328 148.939440103 337.623166576 148.208984375 382.591796875 c 2
 147.325195312 442 l 2
 146.677641658 485.52848512 153.015125513 491 193.25 491 c 2
 352.229492188 491 l 2
 352 568 l 2
 358.223632812 604 l 0
 307.166992188 600 l 2
 119.25 600 l 2
 91.8642578125 600 64 597.591625214 64 640.591796875 c 6
 64 715.591796875 l 2
 64 761.622869492 69.8134765625 769 119.583007812 769 c 2
 329.166992188 769 l 2
 449.939453125 769 530 730.92578125 530 570 c 2
 530 548.26171875 l 2
 530 425.55859375 455.5 423.091796875 455.5 423.091796875 c 2
 455.5 423.091796875 530 401.508789062 530 323.091796875 c 2
 530 246 l 2
 530 98.2119140625 440.5 0 249.5 0 c 0
 200.5 0 100.25 0 100.25 0 c 2
 66.3323059082 0 46.5 0.405030876398 46.5 54 c 2
 46.5 120.5 l 2
 46.5 162.145829678 61.4855957031 169 107.25 169 c 2
EndSplineSet
EndChar
StartChar: four
Encoding: 52 52 56
Width: 649
VWidth: 0
Flags: W
HStem: 0 21G<407.706 507.751> 0 21G<407.706 507.751> 235 167<240.132 608.285> 749 20G<110.894 259.133>
VStem: 372 179<4.44045 765.826>
LayerCount: 2
Fore
SplineSet
91.9658203125 716 m 2x38
 96.0151266761 749.994620184 92.1545333266 769 129.6328125 769 c 2
 234.6328125 769 l 2
 283.6328125 769 279.646162903 744.631714471 273.666992188 696 c 2
 240.1328125 423.249023438 l 2
 237.861328125 406.155273438 238.655273438 402 256.666992188 402 c 2
 561.666992188 402 l 2
 607.666992188 402 610.666992188 394.913747142 610.666992188 350 c 2
 610.666992188 292 l 2
 610.666992187 245.570395277 608.118724281 235 564.666992188 235 c 2
 173.6328125 235 l 6
 65.42578125 235 37.442651123 258.26866001 54.6328125 402.583007812 c 2
 91.9658203125 716 l 2x38
551 55 m 2
 551 3.7197265625 531.860044479 -2.95241177557e-015 507.750976562 0 c 2
 423 0 l 2xb8
 392.411132812 0 372 5.8408203125 372 55 c 2
 372 712.665039062 l 2
 372 761.5546875 382.706054688 770.165039062 422.666992188 770.165039062 c 2
 497.666992188 770.165039062 l 2
 537.218993664 770.165039062 551 762.099609375 551 712.165039062 c 2
 551 55 l 2
EndSplineSet
EndChar
StartChar: seven
Encoding: 55 55 29
Width: 610
VWidth: 0
Flags: W
HStem: -1 21G<259.5 370.5> -1 21G<259.5 370.5> 293 177<167.652 571.984> 592 177<69.6523 338.882>
LayerCount: 2
Fore
SplineSet
580 385 m 2x30
 580 346 l 2
 580 303 566 293 498 293 c 2
 399 293 l 1
 235 293 l 2
 172 293 157 297 157 365 c 2
 157 384 l 2
 157 469 178 470 254 470 c 2
 500 470 l 2
 574 470 580 457 580 385 c 2x30
426 80 m 2
 414 28 394 -1 347 -1 c 2
 284 -1 l 2xb0
 235 -1 236 35 248 84 c 1
 271 178 l 1
 289 252 l 1
 337 448 l 1
 363 550 l 1
 396 616 l 5
 559 631 l 1
 457 208 l 1
 449 172 l 1
 426 80 l 2
559 684 m 2
 559 631 l 1
 476 592 l 1
 393 609 l 1
 301 592 l 2
 137 592 l 2
 74 592 59 596 59 664 c 2
 59 683 l 2
 59 768 80 769 156 769 c 2
 478 769 l 2
 552 769 559 756 559 684 c 2
EndSplineSet
EndChar
StartChar: eight
Encoding: 56 56 59
Width: 632
VWidth: 0
Flags: W
HStem: 0 169<240.686 396.322> 326.135 121.678<254.821 362.328> 600.135 169.865<246.389 367.214>
VStem: 48 179<184.217 318.064> 64.417 179<459.281 594.895> 373.417 179<458.793 593.682> 401.834 182<178.105 320.973>
LayerCount: 2
Fore
SplineSet
313.416992188 447.8125 m 3xec
 334.46484375 447.8125 373.416992188 450.23828125 373.416992188 515.526367188 c 3
 373.416992188 588.412311557 372.668539335 600.134765625 310.416992188 600.134765625 c 3
 245.932951465 600.134765625 243.416992188 586.008117599 243.416992188 514.947265625 c 3
 243.416992188 453.741210938 280.213867188 447.8125 313.416992188 447.8125 c 3xec
313.416992188 169 m 3
 389.118574018 169 401.833984375 177.1397989 401.833984375 257.5 c 3
 401.833984375 328.610967785 373.71932852 326.134765625 310.416992188 326.134765625 c 7
 260.955787446 326.134765625 227 324.573089831 227 259.5 c 7xf2
 227 183.356999829 244.49568102 169 313.416992188 169 c 3
48 245 m 3
 48 370.0625 133.916992188 396 133.916992188 396 c 17
 133.916992188 396 64.4169921875 410.484375 64.4169921875 540 c 3
 64.4169921875 739.910292261 141.653913672 770 305.416992188 770 c 3
 474.282482997 770 552.416992188 721.1850234 552.416992188 526.5 c 3xec
 552.416992188 389.584960938 479.916992188 396 479.916992188 396 c 1
 479.916992188 396 583.833984375 374.049804688 583.833984375 225.5 c 3
 583.833984375 11.9264340641 433.46692149 0 305.833984375 0 c 3
 214.025843914 0 48 13.5234836185 48 245 c 3
EndSplineSet
EndChar
StartChar: question
Encoding: 63 63 26
Width: 565
VWidth: 0
Flags: W
HStem: 0 189<179.52 341.276> 640 177<34.0394 324>
VStem: 172.5 177<6.99901 180.567> 176.667 163.97<243.031 351.078> 346 179<525.072 627.743>
LayerCount: 2
Fore
SplineSet
525 606 m 2xd8
 525 459.578125 450.55078125 428.541992188 392 378.833007812 c 2
 365.498046875 356.333007812 l 2
 345.807617188 339.616210938 340.637458128 313.105198757 340.637458128 277.833333957 c 3
 340.637458128 245.217730964 324.201171875 240 302.166015625 240 c 2
 220.166992188 240 l 2
 183.194335938 240 176.666992188 256.890625 176.666992188 282 c 2
 176.666992188 340.333007812 l 2
 176.666992188 419.294677615 222.652486104 442.878707972 266 474 c 2
 285.5 488 l 2
 333.028320312 522.123046875 346 557 346 583 c 2
 346 585 l 1
 357 652.166992188 l 1
 324 640 l 1
 92.8330078125 640 l 2
 48.41015625 640 30 642.601987484 30 682 c 2
 30 760 l 2
 30 813.483045387 41.1757961479 817 96 817 c 2
 335 817 l 2
 482.778214231 817 525 756.195797865 525 633 c 2
 525 606 l 2xd8
225.666992188 189 m 2
 283.166992188 189 l 2
 320.647313595 189 350.130390327 182.772049142 349.833007812 128.297851562 c 2
 349.5 67.2978515625 l 2
 349.133664241 0.192875373193 321.280273438 -4.58581594176e-015 283.833007812 0 c 2
 232.833007812 0 l 6
 192.140625 0 172.5 2.81417655945 172.5 70.2978515625 c 2
 172.5 133.297851562 l 2xe0
 172.5 182.098175015 185.123841005 189 225.666992188 189 c 2
EndSplineSet
EndChar
StartChar: uni05D3
Encoding: 227 1491 3
Width: 691
VWidth: 0
Flags: W
HStem: 0 21G<397.5 519.5> 0 21G<397.5 519.5> 593 177<51.4322 362>
VStem: 366 179<9.84497 543.444>
LayerCount: 2
Fore
SplineSet
545 85 m 1xb0
 545 50 545 0 494 0 c 0
 474 0 437 0 422 0 c 0
 373 0 366 36 366 85 c 1
 366 179 l 1
 366 253 l 1
 366 517 l 1
 402 653 l 1
 545 632 l 1
 545 209 l 1
 545 173 l 1
 545 85 l 1xb0
636 659 m 2
 636 612 l 1
 539 574 l 1
 415 616 l 1
 362 593 l 1
 133 593 l 2
 87 594 45 573 45 645 c 2
 45 703 l 2
 45 773 66 770 125 770 c 2
 526 770 l 2
 623 770 636 756 636 659 c 2
EndSplineSet
EndChar
StartChar: uni05D4
Encoding: 228 1492 4
Width: 642
VWidth: 0
Flags: W
HStem: 0 21G<437.5 563.5> 0 21G<437.5 563.5> 593 177<59.5712 381.091>
VStem: 62 187<28.0699 309> 62 180<124 407.697> 408 179<8.91676 542.73>
LayerCount: 2
Fore
SplineSet
173 424 m 2x2c
 128 424 l 2
 61 424 62 375 62 305 c 2
 62 305 62 202 62 119 c 0
 62 56 75 3 143 3 c 2
 172 3 l 2
 261 3 252 44 249 124 c 2x34
 242 309 l 2
 240 374 238 424 173 424 c 2x2c
587 85 m 5
 587 50 588 0 539 0 c 6
 462 0 l 6xa4
 413 0 408 36 408 85 c 5
 408 179 l 5
 408 253 l 5
 408 517 l 5
 445 653 l 5
 587 632 l 5
 587 209 l 5
 587 173 l 5
 587 85 l 5
587 659 m 2
 587 593 l 1
 497 615 l 1
 327 593 l 1
 142 593 l 2
 96 594 53 573 53 645 c 2
 53 703 l 2
 53 773 75 770 134 770 c 2
 477 770 l 2
 574 770 587 756 587 659 c 2
EndSplineSet
EndChar
StartChar: uni05DA
Encoding: 234 1498 10
Width: 617
VWidth: 0
Flags: W
HStem: 593 177<44.9031 432.167>
VStem: 397 179<-204.383 543.444>
LayerCount: 2
Fore
SplineSet
576 659 m 2
 576 593 l 1
 473 605 l 1
 375 593 l 1
 127 593 l 2
 81 593 38 589 38 645 c 2
 38 703 l 2
 38 773 60 770 119 770 c 2
 466 770 l 2
 563 770 576 756 576 659 c 2
397 -145 m 6
 397 517 l 5
 433 653 l 5
 576 632 l 5
 576 -117 l 6
 576 -207 540 -231 489 -231 c 6
 429 -231 l 6
 396 -231 397 -215 397 -145 c 6
EndSplineSet
EndChar
StartChar: uni05DB
Encoding: 235 1499 11
Width: 630
VWidth: 0
Flags: W
HStem: 0 170<70.3904 397.204> 593 177<54.9031 442.167>
VStem: 407 179<181.499 543.444>
LayerCount: 2
Fore
SplineSet
586 659 m 6
 586 593 l 5
 483 605 l 5
 385 593 l 5
 137 593 l 6
 91 593 48 589 48 645 c 6
 48 703 l 6
 48 773 70 770 129 770 c 6
 476 770 l 6
 573 770 586 756 586 659 c 6
586 269.5 m 4
 586 116.6171875 558.591605525 -2.28501265696e-014 372 0 c 6
 252 0 l 5
 131.5 0 l 6
 85.5 0 64 3.15258237603 64 52 c 6
 64 103 l 6
 64 173 86 171 145 170 c 6
 342 169 l 6
 404.786956373 168.681284485 407 189.5 407 246.5 c 6
 407 517 l 5
 443 653 l 5
 586 632 l 5
 586 269.5 l 4
EndSplineSet
EndChar
StartChar: uni05DC
Encoding: 236 1500 12
Width: 602
VWidth: 0
Flags: W
HStem: 0 21G<259.5 370.5> 0 21G<259.5 370.5> 592 177<80 165 236 349.462> 599 170<80 233>
VStem: 59 177<614 677 683 696 769 916.869>
LayerCount: 2
Fore
SplineSet
145 926 m 2x18
 183 926 l 2
 226 926 236 911 236 843 c 2
 236 841 l 1
 236 829 l 1
 236 677 l 2
 236 614 233 599 165 599 c 2
 145 599 l 2
 60 599 59 620 59 696 c 2
 59 845 l 2
 59 919 73 926 145 926 c 2x18
426 81 m 2
 414 29 394 0 347 0 c 2
 284 0 l 2x88
 235 0 236 36 248 85 c 1
 271 179 l 1
 289 253 l 1
 337 449 l 1
 391 605 l 1
 559 632 l 1
 457 209 l 1
 449 173 l 1
 426 81 l 2
559 684 m 2
 559 631 l 1
 476 592 l 1
 391 605 l 1
 301 592 l 2
 137 592 l 2
 74 592 59 596 59 664 c 2
 59 683 l 2
 59 768 80 769 156 769 c 2x28
 478 769 l 2x18
 552 769 559 756 559 684 c 2
EndSplineSet
EndChar
StartChar: uni05E0
Encoding: 240 1504 16
Width: 456
VWidth: 0
Flags: W
HStem: 0 169<56.708 237> 593 176<111.438 260.583>
VStem: 104 300<589 752.787> 225 179<36 85 203 552.28>
LayerCount: 2
Fore
SplineSet
301 0 m 1xc0
 205 0 l 1
 115.833007812 0 l 2
 70.1933989525 0 50 2.94492594401 50 52 c 2
 50 102 l 2
 50 172 72 170 131 169 c 2
 167 169 l 1
 287 157 l 1
 301 167 l 2
 351 240 301 0 301 0 c 1xc0
404 85 m 1xd0
 404 16 388 1 356 0 c 2
 282 0 l 2
 233 0 225 36 225 85 c 1
 239 104 l 1
 239 161 l 1
 225 245 l 1
 225 517 l 1xd0
 250 643 l 1
 404 632 l 1xe0
 404 209 l 1
 404 173 l 1
 404 85 l 1xd0
404 659 m 2xe0
 404 593 l 1
 301 605 l 1
 204 593 l 1
 193 593 l 2
 147 594 104 589 104 645 c 2
 104 703 l 2
 104 768.773439577 126 769 185 769 c 2
 295 769 l 2
 392 769 404 756 404 659 c 2xe0
EndSplineSet
EndChar
StartChar: uni05E2
Encoding: 242 1506 18
Width: 642
VWidth: 0
Flags: W
HStem: 0 169<47.7542 131 304 368 401 463.794> 749 20G<451 570.5> 749 20G<451 570.5>
VStem: 412 184<610.303 759.244>
LayerCount: 2
Fore
SplineSet
241 692 m 0xb0
 248 611 291 228.5 291 228.5 c 1
 304 131 l 1
 202 146 l 1
 188 134 118 227.5 118 227.5 c 1
 52 678 l 2
 45 727 44 766 93 769 c 2
 157 773 l 2
 219 778 238 725 241 692 c 0xb0
417.21875 0 m 5
 346 0 l 5
 131 0 l 6
 85 1 42 -20 42 52 c 6
 42 104 l 6
 42 174 64 172 123 171 c 6
 442 169 l 6
 539.002929688 168.391601562 417.21875 0 417.21875 0 c 5
423.719726562 0 m 2
 423.719726562 0 411.060791016 0 401 0 c 0
 352 0 368 144 368 144 c 1
 379 318 l 1
 412 689 l 2
 418 748 415 769 487 769 c 2
 536 769 l 2xd0
 605 769 601 757 596 665 c 2
 543.966665649 144.666656494 l 2
 535.671712669 61.7171266947 515.613517852 -1.1253372069e-014 423.719726562 0 c 2
EndSplineSet
EndChar
StartChar: uni05E7
Encoding: 247 1511 22
Width: 668
VWidth: 0
Flags: W
HStem: -1 21G<378.5 410.5> -1 21G<378.5 410.5> 593 177<62.5712 398.773>
VStem: 65 179<-208.646 295.2> 85 158<322.8 401.67>
LayerCount: 2
Fore
SplineSet
244 -133 m 1x30
 244 -168 240 -202 211 -217 c 0
 199 -223 136 -220 121 -220 c 0
 72 -220 65 -182 65 -133 c 1
 65 47 l 1
 65 121 l 1
 65 263 l 1x30
 85 355 l 2
 93 390 94 410 148 410 c 2
 176 410 l 2
 252 410 243 378 243 319 c 2x28
 244 77 l 1
 244 42 l 1
 244 -133 l 1x30
537 85 m 1
 533 50 524 16 493 1 c 0
 480 -5 418 -1 403 -1 c 0xa0
 354 -1 352 36 358 85 c 1
 369 179 l 1
 378 253 l 1
 410 517 l 1
 462 653 l 1
 604 632 l 1
 552 209 l 1
 547 173 l 1
 537 85 l 1
610 659 m 2
 600 593 l 1
 514 615 l 1
 345 593 l 1
 145 593 l 2
 99 593 56 573 56 645 c 2
 56 703 l 2
 56 773 78 770 137 770 c 2
 450 770 l 2
 551 770 625 760 610 659 c 2
EndSplineSet
EndChar
StartChar: NameMe.262
Encoding: 262 -1 52
Width: 567
VWidth: 0
Flags: W
HStem: 0 169<312.441 513.658> 609.002 160<222.954 332.111>
VStem: 358.464 166.536<462.019 581.772>
LayerCount: 2
Fore
SplineSet
358.463867188 520.001953125 m 3
 358.463867188 575.78125 322.193359375 609.001953125 278.463867188 609.001953125 c 3
 232.590820312 609.001953125 210.470703125 575.544921875 198.463867188 557.227539062 c 0
 177.29296875 524.927734375 159.778320312 525.068359375 128.962890625 542.501953125 c 2
 76.4638671875 572.201171875 l 2
 54.18359375 584.8046875 39.3701171875 610.30078125 63.4638671875 646.001953125 c 0
 123.440429688 734.87109375 190.837890625 769.001953125 283.962890625 769.001953125 c 3
 380.962890625 769.001953125 525 684.45703125 525 515.501953125 c 2
 525 511.5 l 2
 525 423.300578008 478.391739954 372.382396741 424.462890625 311.751953125 c 2
 313.5 187 l 2
 245.478515625 142.5 l 1
 336.479492188 169 l 1
 426.958312988 169 l 2
 503.016509209 169 525.958312988 168.848692908 525.958312988 103 c 2
 525.958312988 77.5 l 2
 525.958312988 2.72352813999 496.467816569 -8.02233543212e-015 430.958312988 0 c 2
 143.458007812 0 l 2
 80.2623801231 0 53.9580078125 -2.4560546875 53.9580078125 57.5 c 0
 53.958020839 98.9999994978 l 6
 53.9580360104 147.333486536 56.3370105505 154.969083873 113.401009003 211.499997574 c 6
 122.485878632 220.499997485 l 2
 308.810641922 424.752072496 l 2
 342.182617188 461.334960938 358.463867188 498.476174156 358.463867188 520.001953125 c 3
EndSplineSet
EndChar
StartChar: NameMe.264
Encoding: 264 -1 50
Width: 647
VWidth: 0
Flags: W
LayerCount: 2
Fore
SplineSet
32.3330078125 756.5 m 6
 5.92816363363 814.787708269 50.0785256786 817 75.5 817 c 6
 164.333007812 817 l 6
 200.676757812 817 221.316304759 789.254170633 244.5 736.5 c 6
 563.333007812 11 l 6
 602.286737485 -77.6386609447 551.173828125 -79 522.333007812 -79 c 6
 468.5 -79 l 6
 413.351054192 -79 401.728515625 -58.6201171875 367.333007812 17 c 6
 32.3330078125 756.5 l 6
EndSplineSet
EndChar
StartChar: NameMe.269
Encoding: 269 -1 47
Width: 691
VWidth: 0
Flags: W
HStem: 0 154<283.998 414.889> 593 177<35.3521 116 247 428.773>
VStem: 69 178<196.594 562> 458 176<203.344 533>
LayerCount: 2
Fore
SplineSet
455 517 m 1
 492 653 l 1
 634 632 l 1
 634 366 l 2
 634 116 558 0 337 0 c 3
 136 0 78 122 71 364 c 2
 69 432 l 1
 67 562 l 1
 179 617 l 5
 247 623 l 2
 247 311 l 2
 247 198 276 154 354 154 c 3
 446 154 458 242 458 307 c 3
 458 354 455 460 455 517 c 1
634 659 m 2
 634 593 l 1
 544 615 l 1
 375 593 l 1
 116 593 l 2
 70 594 27 593 27 645 c 2
 27 703 l 2
 27 773 49 770 108 770 c 2
 525 770 l 2
 622 770 634 756 634 659 c 2
EndSplineSet
EndChar
